<?xml version="1.0" standalone="no"?>
<!DOCTYPE svg PUBLIC "-//W3C//DTD SVG 20010904//EN"
 "http://www.w3.org/TR/2001/REC-SVG-20010904/DTD/svg10.dtd">
<svg version="1.0" xmlns="http://www.w3.org/2000/svg"
 width="300.000000pt" height="300.000000pt" viewBox="0 0 300.000000 300.000000"
 preserveAspectRatio="xMidYMid meet">
<metadata>
Created by potrace 1.10, written by Peter Selinger 2001-2011
</metadata>
<g transform="translate(0.000000,300.000000) scale(0.100000,-0.100000)"
fill="#000000" stroke="none">
<path d="M1490 1915 c0 -9 9 -15 25 -15 16 0 25 6 25 15 0 9 -9 15 -25 15 -16
0 -25 -6 -25 -15z"/>
<path d="M1085 1908 c-7 -19 -8 -45 -7 -130 2 -71 4 -78 22 -78 18 0 20 7 20
75 0 47 4 75 11 75 7 0 9 -26 7 -75 -3 -72 -2 -75 20 -75 21 0 22 4 22 75 0
60 3 75 15 75 8 0 15 -4 15 -10 0 -5 9 -10 20 -10 11 0 20 5 20 10 0 6 5 10
10 10 21 0 9 -30 -17 -42 -24 -12 -28 -19 -28 -58 l0 -45 50 -2 50 -3 -3 86
c-3 79 -5 86 -28 96 -18 8 -31 8 -49 0 -14 -6 -25 -8 -25 -4 0 9 -65 6 -81 -3
-6 -4 -7 3 -3 19 5 22 3 26 -15 26 -12 0 -24 -6 -26 -12z m185 -143 c0 -19 -4
-35 -10 -35 -11 0 -14 53 -3 63 11 12 13 8 13 -28z"/>
<path d="M1436 1889 c-6 -29 -7 -30 -28 -15 -54 38 -88 9 -88 -75 0 -79 11
-99 56 -99 28 0 36 5 45 27 13 34 5 53 -21 53 -16 0 -20 -5 -18 -22 2 -11 -3
-23 -9 -25 -16 -6 -18 112 -3 122 6 4 10 -5 10 -19 0 -21 5 -26 24 -26 18 0
26 7 29 23 2 12 5 -13 6 -55 l1 -78 48 0 47 0 0 90 0 90 -27 0 c-21 0 -28 5
-28 20 0 34 -36 25 -44 -11z m64 -99 c0 -33 -4 -60 -10 -60 -6 0 -10 27 -10
60 0 33 4 60 10 60 6 0 10 -27 10 -60z"/>
<path d="M1878 1813 c-2 -103 -2 -104 -5 -25 -4 77 -6 84 -28 94 -19 8 -31 8
-50 0 -31 -14 -35 -52 -5 -52 11 0 20 5 20 10 0 6 5 10 10 10 22 0 8 -30 -21
-45 -27 -15 -30 -20 -27 -58 l3 -42 75 -3 75 -3 0 111 c0 107 -1 110 -22 110
-22 0 -23 -3 -25 -107z m-48 -48 c0 -19 -4 -35 -10 -35 -11 0 -14 53 -3 63 11
12 13 8 13 -28z"/>
<path d="M1566 1877 c-15 -11 -18 -27 -18 -84 0 -40 3 -76 7 -82 3 -6 22 -11
40 -11 43 0 55 20 55 92 0 82 -37 119 -84 85z m44 -88 c0 -44 -3 -60 -12 -57
-14 5 -23 90 -14 115 12 31 26 -1 26 -58z"/>
<path d="M1660 1888 c-1 -2 -2 -45 -3 -96 -2 -89 -1 -92 21 -92 21 0 22 4 22
75 0 43 4 75 10 75 6 0 10 -32 10 -75 0 -68 2 -75 20 -75 18 0 20 7 20 84 0
62 -4 87 -15 96 -12 10 -18 10 -29 1 -10 -8 -16 -9 -21 -1 -5 8 -34 15 -35 8z"/>
<path d="M1093 1557 c-11 -18 -4 -189 9 -204 14 -18 48 -17 48 1 0 8 -4 18
-10 21 -13 8 -13 108 0 121 14 14 -3 67 -23 70 -9 1 -20 -3 -24 -9z"/>
<path d="M1374 1518 l7 -53 -15 33 c-14 30 -19 33 -53 30 -30 -2 -38 -8 -44
-28 l-6 -25 -11 28 c-10 22 -18 27 -46 27 -44 0 -56 -20 -56 -92 0 -66 21
-100 58 -96 16 2 31 12 38 26 l11 23 17 -26 c28 -43 83 -27 100 30 3 11 4 3 1
-17 -3 -35 -2 -38 21 -38 23 0 24 2 24 80 0 47 4 80 10 80 6 0 10 -34 10 -81
0 -77 1 -80 22 -77 20 3 21 8 19 88 -1 46 -5 88 -8 93 -3 5 -18 7 -33 4 -24
-5 -27 -3 -22 19 4 21 1 24 -23 24 -27 0 -27 -1 -21 -52z m-156 -40 c-5 -32
-28 -35 -28 -4 0 17 5 26 16 26 10 0 14 -7 12 -22z m112 2 c0 -15 7 -20 25
-20 18 0 25 -5 25 -20 0 -15 -7 -20 -25 -20 -18 0 -25 -5 -25 -20 0 -11 -7
-20 -15 -20 -12 0 -15 13 -15 60 0 47 3 60 15 60 8 0 15 -9 15 -20z m-70 -56
c0 -11 -6 -15 -19 -11 -15 3 -21 -1 -23 -17 -3 -24 -21 -25 -26 -1 -6 29 7 45
38 45 21 0 30 -5 30 -16z"/>
<path d="M1530 1455 c0 -113 0 -115 23 -115 21 0 22 3 23 115 1 115 1 115 -22
115 -24 0 -24 -1 -24 -115z"/>
<path d="M1870 1548 c0 -19 -5 -24 -27 -23 l-28 0 -3 -88 c-2 -71 0 -88 13
-93 8 -4 22 -1 30 6 11 9 15 10 15 1 0 -7 9 -11 21 -9 19 3 21 9 21 113 0 104
-2 110 -21 113 -16 3 -21 -2 -21 -20z m0 -108 c0 -33 -4 -60 -10 -60 -6 0 -10
27 -10 60 0 33 4 60 10 60 6 0 10 -27 10 -60z"/>
<path d="M1601 1516 c-18 -22 -10 -156 10 -169 21 -13 69 -1 69 18 0 8 5 15
10 15 6 0 10 -7 10 -15 0 -21 27 -30 45 -15 10 9 15 9 15 1 0 -6 9 -11 20 -11
18 0 20 7 20 83 0 93 -7 107 -58 107 -26 0 -35 -5 -39 -20 l-6 -21 -14 21
c-16 23 -65 27 -82 6z m49 -41 c0 -26 -14 -33 -25 -15 -9 14 1 40 15 40 5 0
10 -11 10 -25z m110 5 c0 -11 -7 -20 -15 -20 -9 0 -27 -12 -40 -26 -15 -16
-31 -24 -40 -20 -10 4 -15 -1 -15 -15 0 -12 -5 -19 -12 -16 -7 2 -13 15 -13
28 0 20 6 25 33 27 24 2 32 8 32 23 0 14 7 19 25 19 14 0 25 5 25 10 0 6 5 10
10 10 6 0 10 -9 10 -20z m0 -69 c0 -32 -14 -49 -25 -31 -9 15 3 60 15 60 6 0
10 -13 10 -29z"/>
</g>
</svg>
